<svg xmlns="http://www.w3.org/2000/svg" width="1280" height="720" viewBox="0 0 1280 720" role="img" aria-labelledby="title desc">
  <title id="title">The Season and Flyer entertainment web case-study visual</title>
  <desc id="desc">A self-hosted visual summarizing entertainment website launch work, motion systems, and responsive frontend implementation.</desc>
  <defs>
    <linearGradient id="bg" x1="0" x2="1" y1="0" y2="1">
      <stop offset="0" stop-color="#000f21"/>
      <stop offset="1" stop-color="#081827"/>
    </linearGradient>
    <linearGradient id="orange" x1="0" x2="1">
      <stop offset="0" stop-color="#fb7b16"/>
      <stop offset="1" stop-color="#ffb703"/>
    </linearGradient>
    <filter id="glow" x="-20%" y="-20%" width="140%" height="140%">
      <feGaussianBlur stdDeviation="12" result="blur"/>
      <feMerge>
        <feMergeNode in="blur"/>
        <feMergeNode in="SourceGraphic"/>
      </feMerge>
    </filter>
  </defs>
  <rect width="1280" height="720" fill="url(#bg)"/>
  <path d="M0 630 C210 540 372 548 560 592 C726 630 916 632 1280 486 L1280 720 L0 720 Z" fill="#061427"/>
  <g opacity=".25" stroke="#ffffff" stroke-width="1">
    <path d="M96 110H1184"/>
    <path d="M96 230H1184"/>
    <path d="M96 350H1184"/>
    <path d="M96 470H1184"/>
    <path d="M96 590H1184"/>
    <path d="M176 72V648"/>
    <path d="M336 72V648"/>
    <path d="M496 72V648"/>
    <path d="M656 72V648"/>
    <path d="M816 72V648"/>
    <path d="M976 72V648"/>
    <path d="M1136 72V648"/>
  </g>
  <rect x="76" y="74" width="1128" height="572" rx="10" fill="rgba(255,255,255,.045)" stroke="rgba(255,255,255,.18)"/>
  <text x="112" y="148" fill="#fb7b16" font-family="Arial, sans-serif" font-size="20" font-weight="700" letter-spacing="4">DIGITAL EXPERIENCES</text>
  <text x="112" y="238" fill="#ffffff" font-family="Arial, sans-serif" font-size="72" font-weight="800">Broadway &amp; Live</text>
  <text x="112" y="314" fill="#ffffff" font-family="Arial, sans-serif" font-size="72" font-weight="800">Entertainment Sites</text>
  <text x="116" y="370" fill="#dbe4ef" font-family="Arial, sans-serif" font-size="24">Creative direction translated into responsive launch systems.</text>
  <g transform="translate(112 444)">
    <rect width="188" height="54" rx="8" fill="#fb7b16"/>
    <text x="28" y="35" fill="#ffffff" font-family="Arial, sans-serif" font-size="18" font-weight="700">Motion patterns</text>
    <rect x="212" width="212" height="54" rx="8" fill="rgba(255,255,255,.08)" stroke="rgba(255,255,255,.18)"/>
    <text x="240" y="35" fill="#ffffff" font-family="Arial, sans-serif" font-size="18" font-weight="700">Responsive sections</text>
  </g>
  <g transform="translate(744 118)">
    <rect width="336" height="440" rx="12" fill="#0a1828" stroke="rgba(255,255,255,.2)"/>
    <rect x="26" y="24" width="284" height="172" rx="8" fill="#101f32"/>
    <circle cx="168" cy="110" r="58" fill="none" stroke="url(#orange)" stroke-width="6" filter="url(#glow)"/>
    <path d="M72 288 C126 238 192 238 258 288" fill="none" stroke="#fb7b16" stroke-width="5" stroke-linecap="round"/>
    <path d="M72 326 H258" stroke="rgba(255,255,255,.55)" stroke-width="8" stroke-linecap="round"/>
    <path d="M72 360 H218" stroke="rgba(255,255,255,.26)" stroke-width="8" stroke-linecap="round"/>
    <path d="M72 394 H242" stroke="rgba(255,255,255,.26)" stroke-width="8" stroke-linecap="round"/>
  </g>
  <g transform="translate(934 202)" opacity=".9">
    <rect width="200" height="268" rx="26" fill="#061427" stroke="rgba(255,255,255,.22)"/>
    <rect x="28" y="38" width="144" height="74" rx="8" fill="#101f32"/>
    <path d="M48 154 H152" stroke="#fb7b16" stroke-width="7" stroke-linecap="round"/>
    <path d="M48 188 H134" stroke="rgba(255,255,255,.42)" stroke-width="7" stroke-linecap="round"/>
    <path d="M48 222 H152" stroke="rgba(255,255,255,.22)" stroke-width="7" stroke-linecap="round"/>
  </g>
</svg>
