<svg xmlns="http://www.w3.org/2000/svg" width="1280" height="720" viewBox="0 0 1280 720" role="img" aria-labelledby="title desc">
  <title id="title">Steve Madden brand and sales presentation design visual</title>
  <desc id="desc">A case-study visual showing sales decks, CAD assets, packaging concepts, and product presentation materials.</desc>
  <rect width="1280" height="720" fill="#f8fafc"/>
  <rect x="74" y="70" width="1132" height="580" rx="10" fill="#000f21"/>
  <text x="112" y="146" fill="#fb7b16" font-family="Arial, sans-serif" font-size="20" font-weight="800" letter-spacing="4">VISUAL COMMUNICATION</text>
  <text x="112" y="232" fill="#ffffff" font-family="Arial, sans-serif" font-size="72" font-weight="800">Brand &amp; Sales</text>
  <text x="112" y="306" fill="#ffffff" font-family="Arial, sans-serif" font-size="72" font-weight="800">Presentation Materials</text>
  <text x="116" y="360" fill="#dbe4ef" font-family="Arial, sans-serif" font-size="24">Product direction translated into clear buyer and merchandising materials.</text>
  <g transform="translate(116 450)">
    <rect width="176" height="70" rx="8" fill="#ffffff"/>
    <text x="24" y="44" fill="#000f21" font-family="Arial, sans-serif" font-size="22" font-weight="800">Decks</text>
    <rect x="202" width="176" height="70" rx="8" fill="#ffffff"/>
    <text x="226" y="44" fill="#000f21" font-family="Arial, sans-serif" font-size="22" font-weight="800">CADs</text>
    <rect x="404" width="214" height="70" rx="8" fill="#fb7b16"/>
    <text x="428" y="44" fill="#ffffff" font-family="Arial, sans-serif" font-size="22" font-weight="800">Packaging</text>
  </g>
  <g transform="translate(786 118)">
    <rect x="0" y="0" width="320" height="420" rx="12" fill="#f8fafc"/>
    <rect x="32" y="34" width="256" height="150" rx="8" fill="#e9edf3"/>
    <path d="M66 222H250M66 262H220M66 302H266" stroke="#000f21" stroke-width="12" stroke-linecap="round" opacity=".78"/>
    <circle cx="96" cy="110" r="48" fill="none" stroke="#fb7b16" stroke-width="10"/>
    <path d="M150 92 C202 64 244 74 266 122" fill="none" stroke="#000f21" stroke-width="8" stroke-linecap="round"/>
  </g>
</svg>
